<svg viewBox="0 0 794.8 1024">
  <path d="M361 0h167.4v775c-85.9 16.3-148.9 22.8-217.4 22.8-204.4 0-311-92.4-311-269.7 0-170.7 113.1-281.6 288.1-281.6 27.2 0 47.8 2.2 72.8 8.7V0h.1zm0 390.1c-15.9-5.5-34.1-8.7-53.2-8.7h-3.5.2c-84.8 0-133.7 52.2-133.7 143.5 0 89.2 46.8 138.1 132.7 138.1 18.5 0 33.7-1.1 57.6-4.4l-.1-268.5zm433.8-131.5v388.1c0 133.7-9.8 197.9-39.1 253.3-27.2 53.3-63.1 87-137 123.9L463.2 950c73.9-34.8 109.8-65.2 132.7-112 23.9-47.8 31.5-103.3 31.5-249V258.5l167.4.1zM627.4.9h167.4v171.8H627.4V.9z"/>
</svg>